<svg preserveAspectRatio="none" width="100%" height="100%" overflow="visible" style="display: block;" viewBox="0 0 7 7" fill="none" xmlns="http://www.w3.org/2000/svg">
<path id="Vector" d="M7 3.5C7 3.95963 6.90947 4.41475 6.73358 4.83939C6.55769 5.26403 6.29988 5.64987 5.97487 5.97487C5.64987 6.29988 5.26403 6.55769 4.83939 6.73358C4.41475 6.90947 3.95963 7 3.5 7C3.04037 7 2.58525 6.90947 2.16061 6.73358C1.73597 6.55769 1.35013 6.29988 1.02513 5.97487C0.700121 5.64987 0.442313 5.26403 0.266421 4.83939C0.0905299 4.41475 -9.68591e-09 3.95963 0 3.5C1.95616e-08 2.57174 0.368749 1.6815 1.02513 1.02513C1.6815 0.368749 2.57174 0 3.5 0C4.42826 0 5.3185 0.368749 5.97487 1.02513C6.63125 1.6815 7 2.57174 7 3.5Z" fill="var(--fill-0, #6F6D6D)" style="fill:#6F6D6D;fill:color(display-p3 0.4341 0.4293 0.4293);fill-opacity:1;"/>
</svg>
